<svg width="276" height="244" viewBox="0 0 276 244" fill="none" xmlns="http://www.w3.org/2000/svg">
<path d="M91.4202 188.846C94.7284 188.846 97.6011 188.865 100.473 188.843C140.387 188.542 180.301 188.172 220.215 187.975C229.994 187.927 239.775 188.439 249.555 188.701C250.046 188.714 250.538 188.777 251.026 188.845C253.194 189.147 254.468 190.541 254.859 192.536C255.247 194.508 253.797 195.682 252.266 196.459C250.845 197.179 249.263 197.581 247.802 198.417C250.704 198.023 253.6 197.581 256.51 197.259C257.806 197.115 259.391 196.386 260.027 198.435C260.648 200.439 260.19 202.594 258.452 203.451C256.459 204.434 254.304 205.287 252.127 205.654C247.003 206.52 241.823 207.064 236.551 207.752C244.706 215.663 246.684 224.509 239.618 234.556C251.586 234.962 263.486 235.365 275.385 235.769C275.378 235.996 275.37 236.224 275.363 236.452C262.689 236.452 250.014 236.452 237.34 236.452C237.33 236.495 237.321 236.539 237.311 236.583C241.226 236.925 245.141 237.268 249.056 237.61C249.069 237.836 249.082 238.062 249.096 238.288C248.704 238.463 248.326 238.744 247.92 238.793C246.594 238.953 245.259 239.095 243.925 239.125C229.509 239.449 215.095 239.866 200.678 240.035C168.367 240.415 136.056 240.669 103.745 240.971C101.748 240.989 99.7507 240.973 97.7535 240.498C138.235 238.837 178.743 238.922 219.234 237.818C217.781 237.818 216.329 237.828 214.877 237.816C191.858 237.621 168.839 237.284 145.82 237.27C127.236 237.258 108.652 237.583 90.0708 237.917C88.1608 237.951 86.1468 238.826 84.3945 239.727C79.7651 242.106 75.2188 241.88 70.5474 239.965C69.5735 239.567 68.4259 239.454 67.3567 239.447C60.6781 239.402 53.999 239.425 47.3201 239.425C47.3113 239.233 47.3026 239.041 47.2938 238.85C53.1762 238.579 59.0587 238.308 64.941 238.037C43.3033 237.393 21.6492 238.707 0.0175202 237.864C0.0117167 237.487 0.00580353 237.11 0 236.733C21.2278 236.153 42.4555 235.572 63.7775 234.989C63.714 234.665 63.7374 234.437 63.6351 234.312C56.7745 225.926 59.3868 215.402 66.9543 208.998C69.327 206.99 69.3228 205.892 67.4972 203.219C66.5129 201.777 65.6891 199.961 65.5537 198.254C65.1456 193.107 66.105 188.267 69.0947 183.805C73.2831 177.553 76.9708 170.965 81.1807 164.728C84.4947 159.819 84.5813 154.507 83.1146 149.349C72.9158 113.485 62.473 77.6899 52.129 41.8668C49.9234 34.2287 47.7064 26.5914 45.6783 18.9054C44.4872 14.3915 41.7726 12.1228 37.1828 11.3748C29.8955 10.1873 22.6665 8.63775 15.4207 7.20216C14.3241 6.98486 13.1364 6.75874 12.2341 6.16622C11.3939 5.61455 10.3746 4.58275 10.351 3.73677C10.3236 2.7514 11.0587 1.22384 11.8802 0.850966C13.3124 0.200858 15.1365 -0.17581 16.6705 0.0817777C28.2537 2.0273 39.891 3.75162 51.1327 7.3372C54.1447 8.2979 57.2013 9.11989 60.2075 10.0973C62.364 10.7984 63.7063 12.3571 64.39 14.5182C65.5568 18.2061 66.8535 21.8565 67.8968 25.5785C68.4102 27.41 69.5458 27.9068 70.9979 27.3046C72.3514 26.7433 73.5933 25.7707 74.6799 24.7595C75.366 24.121 75.4836 22.826 76.2014 22.2776C77.2969 21.4407 78.6745 20.5901 79.965 20.5369C80.7204 20.5057 81.9654 21.885 82.2514 22.8489C83.2086 26.0765 83.8333 29.4027 84.6409 32.9344C85.5322 32.9344 86.4923 32.9418 87.4522 32.9332C141.514 32.4492 195.577 31.9529 249.639 31.5094C252.471 31.4862 255.409 31.0126 258.087 32.5885C259.422 33.3743 260.66 36.6479 259.876 37.955C259.65 38.3309 258.983 38.6622 258.533 38.6441C256.723 38.5717 256.349 39.5726 256.231 41.1215C255.65 48.6997 255.084 56.281 254.342 63.8444C252.253 85.1363 250.081 106.42 247.937 127.707C247.894 128.125 247.809 128.541 247.728 128.955C246.539 135.085 245.434 136.132 239.215 136.856C225.794 138.421 212.348 139.789 198.953 141.55C169.794 145.383 140.609 149.07 111.706 154.619C110.926 154.769 109.971 155.326 109.581 155.981C104.287 164.861 99.0342 173.766 93.8869 182.731C92.858 184.523 92.3122 186.592 91.4202 188.846ZM56.5254 39.3643C56.573 39.0889 56.6576 38.8142 56.6625 38.538C56.7386 34.2643 57.4031 33.5537 61.7065 33.3985C63.6971 33.3268 65.6923 33.3863 67.6855 33.3863C67.6803 33.0711 67.675 32.7558 67.6699 32.4406C67.0357 32.4406 66.3863 32.3508 65.77 32.4557C62.5325 33.0068 60.8853 31.551 61.2956 28.264C61.4292 27.1932 62.0137 26.1729 62.4349 25.147C62.5898 24.7696 63.1346 24.3488 63.0495 24.1074C62.1516 21.5623 61.744 18.5336 60.0679 16.6433C57.233 13.4463 52.8617 13.0061 48.6073 12.1424C50.1952 17.912 51.6323 23.3433 53.1953 28.7382C54.2259 32.2952 55.438 35.7995 56.5688 39.3275C56.8004 40.2793 56.9879 41.2442 57.2699 42.1808C66.0103 71.2046 74.7857 100.218 83.4858 129.254C85.156 134.828 86.5363 140.489 88.1079 146.324C91.0391 145.831 93.8928 145.35 96.7484 144.87C96.6839 144.341 96.6824 144.127 96.6299 143.927C92.5768 128.485 88.4786 113.055 84.5144 97.5902C84.0158 95.6448 83.2489 95.0808 81.3604 95.4686C79.7833 95.7924 78.1425 96.0159 76.5454 95.9436C75.7705 95.9085 75.0309 95.0942 74.2752 94.6327C74.9994 94.1049 75.6638 93.4363 76.4672 93.0957C77.0713 92.8397 77.8545 93.0173 78.5567 92.9796C79.9307 92.9057 81.3038 92.8162 82.845 92.723C82.6187 91.7881 82.489 91.1105 82.2905 90.4536C77.9382 76.0449 73.5983 61.6325 69.2087 47.2352C67.7189 42.3487 67.6602 42.3666 62.4698 42.5341C59.9637 42.6149 59.2561 42.0207 58.9391 39.4522C58.757 37.9758 58.6593 36.489 58.5237 35.007C58.2662 35.0341 58.0088 35.0612 57.7514 35.0884C57.9855 37.1079 58.2195 39.1273 58.4536 41.1468C58.3322 41.2232 58.2108 41.2997 58.0894 41.376C57.5668 40.7066 57.0443 40.0373 56.5254 39.3643ZM214.146 207.528C178.397 208.027 142.649 208.525 106.67 209.027C107.078 210.496 107.37 211.428 107.595 212.376C109.542 220.58 105.253 232.397 92.9108 231.836C91.1135 231.755 90.9388 232.783 90.6963 234.153C132.471 234.153 174.076 234.153 216.325 234.153C213.561 231.43 213.353 227.781 210.401 225.923C209.939 225.632 209.717 224.876 209.5 224.292C207.164 218.007 208.899 212.039 214.146 207.528ZM173.65 92.0244C169.16 92.0244 164.957 92.0069 160.753 92.0303C157.786 92.0468 157.448 92.3236 157.595 95.2914C157.913 101.686 158.321 108.076 158.732 114.465C159.049 119.391 159.428 124.314 159.78 129.239C159.942 129.228 160.104 129.217 160.266 129.206C159.51 117.567 158.753 105.927 157.997 94.2866C158.14 94.2777 158.283 94.2688 158.427 94.2598C159.507 108.395 160.588 122.529 161.681 136.826C165.586 136.433 169.424 135.983 173.275 135.693C174.773 135.58 175.101 134.979 175.046 133.575C174.774 126.544 174.618 119.509 174.387 112.476C174.163 105.657 173.897 98.8403 173.65 92.0244ZM173.52 89.6099C172.988 76.2351 172.469 63.2019 171.955 50.279C166.257 50.279 160.748 50.279 154.933 50.279C155.925 63.6901 156.892 76.7537 157.843 89.6099C163.246 89.6099 168.275 89.6099 173.52 89.6099ZM127.651 92.8022C129.638 108.822 131.548 124.212 133.47 139.706C137.543 139.289 141.345 138.9 145.188 138.507C144.485 131.871 143.807 125.578 143.153 119.283C142.295 111.024 141.451 102.763 140.617 94.5019C140.518 93.5209 140.41 92.7533 139.076 92.7785C135.429 92.8474 131.78 92.8022 127.651 92.8022ZM139.334 50.5783C140.265 61 141.164 71.0558 142.063 81.1115C141.916 81.1249 141.769 81.1384 141.622 81.1518C140.3 67.9309 138.978 54.7101 137.656 41.4892L136.946 41.5668C138.648 57.7436 140.351 73.9204 142.051 90.0716H155.189C154.391 76.6523 153.613 63.5652 152.84 50.5783H139.334ZM112.858 94.1982C112.711 94.2208 112.565 94.2436 112.418 94.2663C114.688 109.938 116.957 125.609 119.249 141.435C123.16 140.963 126.82 140.521 130.72 140.051C128.602 124.362 126.515 108.913 124.452 93.6342C120.639 93.6342 117.163 93.6342 113.701 93.6342C115.642 107.411 117.539 120.878 119.435 134.344C119.282 134.365 119.128 134.386 118.974 134.408C116.935 121.004 114.897 107.601 112.858 94.1982ZM208.555 48.6074C208.102 61.814 207.642 75.1806 207.185 88.4956C211.551 88.4956 215.527 88.4956 219.841 88.4956C220.721 75.161 221.587 62.0201 222.472 48.6074C217.657 48.6074 213.223 48.6074 208.555 48.6074ZM148.579 138.265C151.965 137.931 155.133 137.619 158.419 137.295C158.117 133.385 157.816 129.82 157.572 126.251C156.835 115.447 156.132 104.641 155.361 93.8401C155.323 93.2997 154.767 92.3418 154.458 92.3442C150.473 92.3753 146.489 92.5456 142.372 92.6851C143.94 107.953 145.479 122.948 147.019 137.941C147.238 137.919 147.457 137.897 147.675 137.875C146.632 126.988 145.589 116.101 144.545 105.214C144.667 105.201 144.788 105.188 144.91 105.176C146.12 116.092 147.331 127.008 148.579 138.265ZM117.475 141.735C115.047 125.639 112.66 109.818 110.254 93.8651C106.18 94.0441 102.358 94.2122 98.4074 94.3859C101.566 110.712 104.68 126.811 107.813 143.007C111.054 142.58 114.106 142.178 117.475 141.735ZM204.324 88.8193C204.887 75.3519 205.441 62.1216 205.981 49.2165C201.273 49.2165 196.868 49.2165 192.148 49.2165C192.148 62.6767 192.148 75.784 192.148 88.8193C196.131 88.8193 200.111 88.8193 204.324 88.8193ZM188.876 134.052C188.876 119.626 188.876 105.574 188.876 91.5911C184.464 91.5911 180.364 91.5911 176.055 91.5911C176.577 106.271 177.088 120.645 177.606 135.215C181.622 134.8 185.306 134.42 188.876 134.052ZM122.971 51.384C124.484 64.777 125.949 77.7556 127.391 90.5283C131.829 90.5283 135.922 90.5283 140.2 90.5283C138.879 77.1755 137.594 64.1903 136.327 51.384C131.836 51.384 127.566 51.384 122.971 51.384ZM234.311 88.232C235.618 74.888 236.899 61.8233 238.192 48.6263C233.547 48.6263 229.085 48.6263 224.396 48.6263C223.642 61.9073 222.896 75.0568 222.148 88.232C226.351 88.232 230.2 88.232 234.311 88.232ZM12.1557 4.37907C15.2603 5.1458 18.3465 5.99814 21.4731 6.66142C28.1414 8.07603 34.8433 9.33417 41.5061 10.7739C44.8041 11.4865 46.6461 13.7425 47.3308 17.0137C47.9646 20.0419 48.4802 23.109 49.342 26.0733C58.549 57.7461 67.8763 89.384 77.0304 121.072C80.2825 132.329 84.7987 143.256 86.1731 155.023C86.1818 155.098 86.3665 155.153 86.3674 155.153C87.8387 154.37 89.1807 153.389 90.6828 152.907C94.5625 151.664 98.4636 150.409 102.443 149.569C126.63 144.466 151.064 140.971 175.653 138.493C188.602 137.189 201.536 135.741 214.475 134.345C215.137 134.273 215.786 134.084 216.441 133.95C209.621 134.119 202.899 134.687 196.193 135.407C180.242 137.12 164.278 138.739 148.357 140.705C128.255 143.187 108.189 145.959 88.1155 148.668C86.6916 148.86 86.0739 148.53 85.7233 147.16C84.8522 143.754 83.9172 140.362 82.9266 136.989C74.6436 108.783 66.3019 80.5934 58.0651 52.3735C54.4789 40.0868 51.0476 27.754 47.6491 15.4137C46.5 11.2412 43.716 8.90036 39.8415 7.56097C38.9148 7.24066 37.9478 7.02247 36.986 6.82013C30.0347 5.35719 23.0702 3.9553 16.1337 2.42574C14.4733 2.05956 13.2942 2.50363 12.1557 4.37907ZM175.154 49.7692C175.426 63.1656 175.691 76.2187 175.953 89.1357C180.359 89.1357 184.467 89.1357 188.625 89.1357C188.625 75.8062 188.625 62.7655 188.625 49.7692C184.18 49.7692 179.842 49.7692 175.154 49.7692ZM89.757 52.1273C89.9328 53.1704 90.0257 53.853 90.1648 54.5258C91.0898 58.9971 92.0442 63.4624 92.9521 67.937C94.4608 75.3727 95.9181 82.8189 97.4756 90.2441C97.6114 90.8916 98.3295 91.9203 98.7759 91.9197C102.406 91.9148 106.036 91.7066 109.827 91.5537C109.518 89.8136 109.25 88.3003 108.98 86.7876C107.016 75.7897 105.066 64.7894 103.051 53.8009C102.939 53.1931 102.309 52.2129 101.897 52.2003C97.9171 52.0785 93.9323 52.1273 89.757 52.1273ZM191.862 90.9752C191.862 105.354 191.862 119.454 191.862 133.725C194.663 133.474 197.306 133.12 199.957 133.039C201.914 132.979 202.536 132.247 202.603 130.275C203.028 117.84 203.589 105.409 204.099 92.9764C204.126 92.3082 204.102 91.6379 204.102 90.9752C199.923 90.9752 196.012 90.9752 191.862 90.9752ZM205.33 132.403C208.777 132.025 211.833 131.616 214.904 131.387C216.32 131.281 216.772 130.749 216.861 129.347C217.65 116.867 218.515 104.391 219.344 91.9132C219.37 91.5205 219.255 91.1184 219.212 90.7735C215.136 90.7735 211.186 90.7735 207.162 90.7735C206.55 104.682 205.949 118.342 205.33 132.403ZM230.618 129.788C231.788 116.579 232.932 103.659 234.097 90.5093C230.586 90.5093 227.299 90.5866 224.018 90.4761C222.428 90.4226 221.861 90.8261 221.772 92.5355C221.19 103.623 220.474 114.703 219.81 125.786C219.712 127.429 219.654 129.075 219.569 130.89C223.456 130.503 226.939 130.155 230.618 129.788ZM106.738 52.0079C107.522 56.739 108.272 61.1584 108.983 65.5843C110.274 73.6293 111.522 81.6815 112.858 89.719C112.958 90.3185 113.597 91.284 114.018 91.3015C117.225 91.4348 120.44 91.3745 123.721 91.3745C122.254 77.926 120.841 64.9714 119.427 52.0079C115.231 52.0079 111.179 52.0079 106.738 52.0079ZM94.6549 91.7296C91.9336 79.8257 89.2133 67.8969 86.4762 55.9719C85.6818 52.5108 85.6594 52.5432 82.043 52.481C80.4584 52.4538 78.8763 52.2892 77.293 52.187C77.2896 51.8193 77.2861 51.4514 77.2828 51.0837C79.8913 50.8751 82.4998 50.6666 85.2141 50.4495C84.6349 47.6593 84.0949 45.0576 83.5768 42.5612C80.1371 42.5612 76.818 42.5612 72.9151 42.5612C77.8785 58.025 82.6863 73.0903 87.5586 88.1348C89.1166 92.9455 89.1949 92.9205 94.1803 92.0631C94.2421 92.0525 94.2944 91.9861 94.6549 91.7296ZM85.6518 199.336C85.2062 197.169 84.9191 195.664 84.5853 194.17C83.4206 188.956 84.1226 184.14 87.4566 179.809C88.9124 177.918 90.2333 175.922 91.591 173.956C95.6129 168.135 99.6225 162.304 103.778 156.273C97.8016 156.996 92.5095 158.861 89.422 163.933C83.8388 173.104 78.5969 182.491 73.4903 191.939C72.5884 193.607 72.9465 196.006 72.9399 198.068C72.9386 198.489 73.9012 199.263 74.4377 199.28C78.0018 199.389 81.5711 199.336 85.6518 199.336ZM100.33 194.311C149.66 193.41 198.777 192.512 247.893 191.615C247.892 191.441 247.892 191.267 247.892 191.093C198.674 189.854 149.455 191.176 100.142 191.123C100.212 192.306 100.264 193.198 100.33 194.311ZM228.193 196.037C184.665 196.789 141.704 197.32 98.8045 200.031C99.538 200.349 100.269 200.357 100.999 200.348C104.869 200.299 108.74 200.16 112.609 200.207C154.127 200.717 195.617 199.685 237.095 197.991C240.569 197.849 244.03 197.397 247.497 197.089C247.481 196.912 247.465 196.734 247.449 196.557C239.684 196.985 231.919 197.414 224.154 197.843C224.117 197.583 224.08 197.323 224.043 197.063C225.253 196.763 226.464 196.464 228.193 196.037ZM219.441 202.592C182.091 202.592 144.979 202.592 107.729 202.592C107.925 203.783 108.06 204.604 108.224 205.601C145.307 205.342 182.332 205.084 219.441 204.826C219.441 203.893 219.441 203.218 219.441 202.592ZM200.914 33.0466C200.915 33.0068 200.915 32.9668 200.916 32.927C200.09 32.927 199.263 32.9137 198.437 32.9289C153.281 33.7561 108.125 34.5848 62.9688 35.4177C60.0637 35.4713 59.8852 35.7288 60.6585 39.0031C107.365 37.0195 154.14 35.0331 200.914 33.0466ZM60.9178 40.2406C60.9129 40.5422 60.9079 40.8438 60.903 41.1455C126.032 39.3368 191.162 37.528 256.291 35.7192C256.281 35.3657 256.272 35.0121 256.262 34.6587C191.112 35.2149 126.061 39.4259 60.9178 40.2406ZM72.2471 224.891C72.5109 224.936 72.7748 224.98 73.0385 225.024C74.3458 223.811 75.8467 223.144 77.3619 224.292C77.8877 224.69 77.8533 225.828 78.0706 226.613C81.0669 225.301 81.0712 225.302 81.4828 221.587C81.6682 219.913 81.9514 218.238 81.9819 216.56C82.0554 212.529 82.0057 208.494 82.0057 204.176C78.6963 204.176 74.8976 204.176 70.8783 204.176C71.3383 211.135 71.7927 218.013 72.2471 224.891ZM237.182 88.1688C238.161 88.1688 238.778 88.1919 239.393 88.1649C242.688 88.0206 242.252 88.5086 242.545 85.2191C243.338 76.32 244.15 67.4225 244.949 58.524C245.261 55.0523 245.56 51.5794 245.869 48.0597C245.008 48.1132 244.45 48.1525 243.891 48.1816C241.04 48.3304 241.068 48.332 240.788 51.2827C240.151 58.0066 239.485 64.7279 238.827 71.4499C238.293 76.9023 237.754 82.354 237.182 88.1688ZM237.63 129.173C239.107 116.239 240.57 103.427 242.044 90.5121C240.207 90.5121 238.68 90.5121 236.815 90.5121C235.547 103.482 234.284 116.394 232.993 129.584C234.746 129.428 236.109 129.308 237.63 129.173ZM75.875 201.757C75.8669 201.675 75.859 201.593 75.851 201.511C74.7985 201.511 73.7457 201.528 72.6937 201.508C69.8157 201.454 68.8922 200.7 68.6448 197.796C68.3417 194.241 69.3732 190.955 71.2339 187.96C76.0991 180.13 80.9722 172.304 85.9342 164.536C89.1835 159.448 93.6924 156.085 99.757 154.979C110.416 153.035 121.049 150.946 131.725 149.098C140.369 147.602 149.06 146.372 157.73 145.024C155.638 145.054 153.542 145.164 151.479 145.486C136.395 147.837 121.312 150.192 106.243 152.634C101.249 153.444 96.2926 154.49 91.3314 155.489C90.6254 155.631 89.7925 155.959 89.3562 156.483C87.5311 158.672 85.6414 160.848 84.1267 163.25C79.1361 171.164 74.1233 179.074 69.4775 187.191C67.2256 191.126 67.1118 195.666 67.9929 200.139C68.2974 201.686 69.1997 202.417 70.8436 202.214C72.514 202.007 74.1973 201.905 75.875 201.757ZM229.503 224.421C229.755 224.485 230.008 224.549 230.26 224.613C230.26 217.576 230.26 210.539 230.26 203.14C227.738 203.14 225.022 203.14 222.241 203.14C222.25 203.291 222.279 203.821 222.307 204.318C224.629 204.793 227.092 203.147 229.134 205.39C227.547 205.887 225.949 206.108 224.344 206.223C222.829 206.332 222.062 206.912 222.166 208.584C222.309 210.898 222.184 213.229 222.316 215.545C222.465 218.17 222.771 220.786 223.049 223.847C223.85 223.141 224.216 222.755 224.643 222.454C226.557 221.101 229.159 221.593 228.77 223.296C228.335 223.141 227.907 222.989 227.41 222.812C227.053 223.327 226.7 223.836 226.294 224.421C227.485 224.421 228.494 224.421 229.503 224.421ZM90.2427 94.797C90.4996 95.7546 90.6476 96.3518 90.82 96.942C93.7916 107.12 96.8235 117.28 99.7153 127.481C101.094 132.343 102.225 137.277 103.428 142.188C103.713 143.352 104.093 144.033 105.371 143.169C101.985 126.984 98.6099 110.852 95.2511 94.797C93.4843 94.797 92.0279 94.797 90.2427 94.797ZM233.03 215.486C232.933 216.433 232.865 217.247 232.764 218.056C232.503 220.144 232.41 222.276 231.911 224.306C231.241 227.028 229.085 228.136 226.412 227.454C222.977 226.577 221.752 225.144 221.396 221.608C221.233 219.986 221.051 218.366 220.856 216.537C216.783 220.902 217.224 226.989 221.636 230.777C225.523 234.113 231.771 233.123 235.484 228.581C238.313 225.122 237.182 218.583 233.03 215.486ZM102.159 143.936C102.046 143.442 101.986 143.1 101.888 142.771C99.4051 134.411 96.9571 126.04 94.4189 117.697C92.29 110.699 90.0628 103.731 87.8579 96.7563C87.5589 95.8104 87.3802 94.5417 85.8263 95.3179C90.1014 111.739 94.361 128.099 98.6415 144.541C99.891 144.326 100.986 144.138 102.159 143.936ZM171.83 40.7398C165.969 40.7398 160.386 40.7398 154.541 40.7398C154.721 43.6504 154.883 46.2548 155.046 48.893C160.844 48.6547 166.29 48.4309 171.83 48.2033C171.83 45.6124 171.83 43.1939 171.83 40.7398ZM83.856 219.141C83.354 221.517 83.0054 223.94 82.3075 226.258C81.5917 228.636 79.7698 229.966 77.265 230.057C74.8243 230.146 72.7561 229.253 71.8543 226.837C71.0997 224.816 70.6053 222.689 70.1108 220.582C69.8379 219.419 69.802 218.201 69.6286 216.751C66.0314 220.755 65.6928 226.751 68.5607 230.942C70.9499 234.433 73.9554 235.022 79.2753 233.043C84.1349 231.235 86.544 223.93 83.856 219.141ZM138.399 41.1537C138.688 44.145 138.934 46.6988 139.163 49.0799C143.697 49.0799 148.002 49.0799 152.549 49.0799C152.366 46.2036 152.204 43.6577 152.045 41.1537C147.477 41.1537 143.098 41.1537 138.399 41.1537ZM87.5684 42.0613C88.1341 44.6756 88.7021 46.9075 89.074 49.1716C89.2831 50.4453 89.8777 50.7414 91.0568 50.6944C93.7215 50.5884 96.3913 50.6189 99.0581 50.553C100.135 50.5263 101.209 50.3924 102.419 50.2966C101.99 47.7152 101.665 45.4266 101.188 43.1698C101.097 42.7364 100.421 42.1175 100.004 42.1094C95.9484 42.0294 91.8899 42.0613 87.5684 42.0613ZM136.227 49.5364C135.976 46.6186 135.752 44.0125 135.54 41.5404C130.917 41.5404 126.58 41.5404 121.936 41.5404C122.257 44.4579 122.549 47.1147 122.816 49.5364C127.445 49.5364 131.709 49.5364 136.227 49.5364ZM106.372 49.9376C110.818 49.9376 114.928 49.9376 119.287 49.9376C119.03 47.0598 118.803 44.5107 118.576 41.9696C114.021 41.9696 109.649 41.9696 104.998 41.9696C105.495 44.8531 105.944 47.457 106.372 49.9376ZM189.3 40.3454C184.328 40.3454 179.672 40.3454 175.129 40.3454C175.129 43.0599 175.129 45.4776 175.129 47.7265C179.835 47.7265 184.283 47.7265 188.836 47.7265C189.003 45.0658 189.151 42.7104 189.3 40.3454ZM206.124 40.0375C201.534 40.0375 197.069 40.0375 192.448 40.0375C192.448 42.5969 192.448 44.9443 192.448 47.4224C196.966 47.4224 201.423 47.4224 206.124 47.4224C206.124 44.8832 206.124 42.4669 206.124 40.0375ZM241.028 193.831C241.021 193.534 241.014 193.238 241.007 192.942C197.447 194.042 153.887 195.141 110.326 196.241C153.896 195.57 197.476 195.289 241.028 193.831ZM223.026 39.7325C218.205 39.7325 213.68 39.7325 208.957 39.7325C208.957 42.3671 208.957 44.7191 208.957 46.77C213.471 46.77 217.944 46.77 222.486 46.77C222.684 44.1933 222.855 41.9699 223.026 39.7325ZM224.648 46.3823C229.135 46.3823 233.263 46.4134 237.389 46.3336C237.798 46.3257 238.474 45.6878 238.547 45.2602C238.877 43.346 239.032 41.402 239.257 39.4146C234.492 39.4146 229.903 39.4146 225.157 39.4146C224.983 41.803 224.821 44.0108 224.648 46.3823ZM98.164 193.975C94.9071 193.131 92.1053 192.405 89.2518 191.665C89.0351 188.205 89.9186 185.101 91.5721 182.285C96.2694 174.284 101.089 166.355 105.862 158.399C106.309 157.655 106.765 156.916 107.217 156.175C106.187 156.891 105.516 157.83 104.861 158.779C99.4627 166.588 94.0795 174.407 88.6667 182.206C85.7749 186.373 86.1075 190.605 88.0826 194.802C91.4394 194.527 94.6006 194.267 98.164 193.975ZM91.7639 215.408C93.8024 215.561 95.5671 215.283 96.8665 215.934C97.7677 216.385 98.7878 218.656 98.4237 219.169C97.5374 220.417 95.8759 221.115 94.2157 222.247C94.2401 222.295 94.4433 223.237 94.8066 223.303C96.361 223.588 97.9872 223.543 98.8225 221.842C100.892 217.627 100.639 213.193 100.15 208.566C96.932 208.566 93.9381 208.566 90.6396 208.566C91.0533 211.083 91.4567 213.538 91.7639 215.408ZM133.226 206.674C158.565 206.674 188.441 206.674 218.316 206.674C188.421 205.093 158.537 206.065 133.226 206.674ZM243.288 87.7145C243.601 87.8331 243.913 87.9519 244.226 88.0706C244.473 87.3198 244.873 86.5831 244.943 85.8163C245.835 76.0233 246.673 66.2253 247.539 56.4298C247.828 53.1688 248.158 49.9114 248.464 46.7083C246.475 46.2016 246.557 47.4367 246.469 48.4767C245.708 57.5053 244.945 66.5338 244.204 75.5642C243.873 79.6121 243.592 83.6643 243.288 87.7145ZM69.0018 30.8859C70.1517 32.0033 70.7571 33.1127 71.4175 33.1464C74.8963 33.3237 78.3888 33.2294 82.3007 33.2294C81.226 29.234 80.3119 25.8352 79.3977 22.4362C79.1628 22.4157 78.9278 22.3951 78.6928 22.3747C76.3372 25.9257 75.076 30.6416 69.0018 30.8859ZM239.143 128.686C239.432 128.804 239.722 128.922 240.012 129.04C240.262 128.364 240.663 127.705 240.739 127.01C241.588 119.255 242.395 111.497 243.196 103.737C243.608 99.7526 244.005 95.766 244.347 91.7749C244.383 91.347 244.006 90.8836 243.82 90.4368C243.539 90.8303 243.232 91.2089 242.989 91.6246C242.893 91.7897 242.939 92.0374 242.917 92.2471C242.102 100.006 241.281 107.764 240.475 115.523C240.019 119.909 239.586 124.298 239.143 128.686ZM241.168 46.0051C247.203 46.9555 250.394 44.2971 249.87 39.2063C247.173 39.2063 244.495 39.2063 241.755 39.2063C241.547 41.6151 241.362 43.756 241.168 46.0051ZM85.5056 92.6816C85.6739 92.5295 85.8422 92.3774 86.0105 92.2254C83.1583 83.0405 80.2327 73.8775 77.4781 64.6635C75.4463 57.8675 73.6421 51.0034 71.7238 44.1733C71.4446 43.1794 71.2418 41.9987 69.4618 42.7734C70.3673 45.3746 71.3426 47.92 72.1431 50.5191C76.2771 63.9425 80.3602 77.3816 84.489 90.8066C84.6939 91.4728 85.1607 92.0584 85.5056 92.6816ZM191.467 40.186C191.257 40.181 191.047 40.1759 190.837 40.1709C190.356 58.5339 190.203 76.8974 191.467 95.2631C191.467 76.904 191.467 58.545 191.467 40.186ZM204.762 112.212C204.962 112.21 205.162 112.207 205.362 112.204C206.293 88.1372 207.225 64.0705 208.156 40.0037C207.929 39.9957 207.702 39.9878 207.475 39.9798C206.571 64.0574 205.666 88.1349 204.762 112.212ZM64.8699 23.7865C65.0542 23.7303 65.2384 23.6739 65.4227 23.6177C64.7503 21.0824 63.9138 18.5767 63.4482 16.004C62.9061 13.0075 61.0177 11.5799 58.334 10.8421C54.2133 9.70917 50.087 8.59668 45.959 7.49055C45.9128 7.47816 45.8127 7.66677 45.7885 7.69724C46.9642 10.0968 49.0298 10.9803 51.5268 11.3455C53.2486 11.5974 54.9488 12.1028 56.6097 12.645C60.3969 13.8814 63.0687 16.1988 63.8337 20.3342C64.0509 21.5088 64.5176 22.6371 64.8699 23.7865ZM233.713 204.388C236.247 204.246 238.571 204.244 240.86 203.963C245.668 203.374 250.473 202.724 255.25 201.925C257.364 201.571 257.766 201.025 258.425 199.2C250.373 202.237 242.032 201.954 233.713 202.409C233.713 203.07 233.713 203.601 233.713 204.388ZM246.197 87.4803C246.573 87.5303 246.949 87.5803 247.325 87.6303C248.755 73.934 250.186 60.2376 251.616 46.5413C251.4 46.5186 251.185 46.496 250.969 46.4733C249.378 60.1423 247.788 73.8113 246.197 87.4803ZM121.223 41.878C120.961 41.9094 120.699 41.9408 120.436 41.972C122.204 58.1122 123.973 74.2524 125.741 90.3926C125.98 90.3657 126.22 90.3387 126.459 90.3118C124.714 74.1672 122.968 58.0227 121.223 41.878ZM84.9179 205.545C92.315 205.545 99.7122 205.545 107.204 205.545C106.84 203.551 105.549 204.012 104.502 203.923C102.531 203.757 100.098 205.174 98.8871 202.318C98.8449 202.218 98.6512 202.126 98.5277 202.126C95.7358 202.115 92.9437 202.118 90.1518 202.118C90.1494 202.337 90.147 202.557 90.1446 202.776C92.9169 202.776 95.6892 202.776 98.4615 202.776C98.4847 203.104 98.5078 203.432 98.5311 203.76C94.2511 205.994 89.2532 203.616 84.9179 205.545ZM235.518 87.6619C237.418 74.6551 239.055 61.6344 240.15 48.5624C239.802 48.5288 239.454 48.4952 239.105 48.4616C237.91 61.5285 236.714 74.5953 235.518 87.6619ZM242.467 128.262C242.685 128.285 242.904 128.308 243.123 128.331C244.413 115.714 245.703 103.097 246.993 90.4805C246.654 90.4464 246.314 90.4122 245.975 90.3781C244.806 103.006 243.636 115.634 242.467 128.262ZM86.0102 42.1014C85.8055 42.2391 85.6009 42.3768 85.3962 42.5145C87.9389 53.0721 90.4817 63.6296 93.0795 74.4162C93.195 74.0373 93.284 73.9055 93.2616 73.7966C91.1618 63.6218 89.0618 53.4469 86.9177 43.2813C86.8254 42.8437 86.322 42.4928 86.0102 42.1014ZM105.912 52.0002C105.577 52.0582 105.242 52.1162 104.906 52.1741C107.021 64.003 109.136 75.832 111.251 87.6609C109.8 75.7192 108.189 63.8044 105.912 52.0002ZM216.196 235.837C216.217 235.619 216.239 235.401 216.261 235.182C200.153 235.182 184.046 235.182 170.341 235.182C184.023 235.378 200.11 235.607 216.196 235.837ZM252.27 56.5364C252.02 56.5123 251.769 56.4883 251.518 56.4642C250.562 66.2397 249.606 76.0151 248.65 85.7906C248.896 85.8141 249.142 85.8378 249.388 85.8614C250.349 76.0864 251.309 66.3115 252.27 56.5364ZM92.8782 226.954C96.7932 227.532 101.146 224.698 102.7 220.959C104.486 216.662 103.948 211.326 101.55 209.559C104.066 220.931 101.584 224.753 92.8782 226.954ZM257.69 202.826C250.341 205.301 242.577 205.055 235.015 206.157C242.724 206.092 250.442 206.089 257.69 202.826ZM85.5221 216.116C86.7737 220.149 87.2474 224.141 85.7256 228.251C84.1111 232.61 80.8523 234.733 76.4069 235.43C81.0861 235.272 83.9637 233.433 85.9193 229.297C88.0132 224.868 88.2389 220.429 85.5221 216.116ZM106.267 143.022C106.53 142.998 106.793 142.974 107.056 142.949C105.421 134.501 103.785 126.053 102.15 117.604C102.015 117.629 101.879 117.654 101.743 117.679C103.251 126.127 104.759 134.575 106.267 143.022ZM251.651 76.5027C251.844 76.5199 252.036 76.537 252.229 76.5541C253.09 67.0067 253.952 57.4593 254.814 47.9119C254.658 47.898 254.503 47.8842 254.348 47.8702C253.449 57.4144 252.55 66.9586 251.651 76.5027ZM215.851 226.047C217.507 233.166 226.311 238.138 231.816 233.312C223.726 235.393 220.525 234 215.851 226.047ZM233.296 209.625C236.228 211.996 238.788 214.621 239.939 218.322C241.098 222.048 241.015 225.74 239.627 229.411C243.664 223.517 240.353 212.877 233.296 209.625ZM203.894 32.6512C203.877 32.6998 203.861 32.7482 203.845 32.7967C214.256 32.7967 224.667 32.7967 235.079 32.7967C235.079 32.7482 235.079 32.6998 235.079 32.6512C234.534 32.6512 233.99 32.6512 233.446 32.6512C223.595 32.6512 213.744 32.6512 203.894 32.6512ZM233.697 212.394C237.762 216.819 239.421 221.873 237.788 228.375C240.758 222.479 238.801 215.353 233.697 212.394ZM75.2619 183.937C74.2839 185.544 73.248 187.118 72.3412 188.764C70.8686 191.436 69.8 194.249 70.1543 197.38C70.2411 198.146 70.623 198.88 70.8692 199.628C71.1151 199.593 71.361 199.558 71.6069 199.523C69.499 193.481 73.222 189.029 75.2619 183.937ZM73.7144 236.928C66.9113 233.844 63.1924 229.183 63.6022 221.806C62.6582 229.32 66.7917 235.679 73.7144 236.928ZM68.7782 210.075C63.7786 212.518 60.9086 218.397 61.516 224.699C61.5421 218.515 64.5866 214.029 68.7782 210.075ZM85.1449 211.92C86.3031 214.411 88.1368 217.537 89.2206 220.905C90.3907 224.541 88.8048 227.991 87.1156 231.261C91.8378 225.679 90.472 216.026 85.1449 211.92ZM174.142 40.8261C173.913 40.831 173.685 40.8359 173.457 40.8407C173.7 47.4724 173.943 54.1043 174.142 59.5151C174.142 54.0936 174.142 47.4598 174.142 40.8261ZM64.6107 26.4841C64.282 26.4777 63.9533 26.4715 63.6245 26.4651C63.4642 27.4964 62.872 28.7291 63.2383 29.5152C63.8974 30.9297 65.3627 31.0157 67.0453 30.3648C66.1796 28.9849 65.3952 27.7345 64.6107 26.4841ZM104.695 50.329C104.916 50.2859 105.138 50.243 105.36 50.1999C105.729 47.2126 104.538 42.3922 103.109 42.0947C103.651 44.9105 104.173 47.6198 104.695 50.329ZM214.094 216.642C215.757 214.834 217.83 212.613 219.854 210.349C220.204 209.958 220.348 209.384 220.773 208.512C216.998 210.605 214.689 213.723 214.094 216.642ZM251.195 43.0149C253.164 42.9878 253.538 42.1878 253.061 39.028C251.151 38.9477 250.848 39.5961 251.195 43.0149ZM239.357 46.2146C239.711 46.2489 240.064 46.2832 240.418 46.3175C240.649 43.9885 240.88 41.6594 241.111 39.3304C240.781 39.2993 240.45 39.2682 240.12 39.2371C239.866 41.563 239.611 43.8889 239.357 46.2146ZM249.997 195.264C249.991 195.08 249.985 194.895 249.978 194.711C245.537 194.92 241.095 195.13 238.26 195.264C241.11 195.264 245.554 195.264 249.997 195.264ZM189.208 139.234C189.178 139.059 189.149 138.884 189.12 138.708C185.415 139.1 181.709 139.492 178.004 139.883C178.02 140.041 178.037 140.199 178.054 140.357C181.772 139.982 185.49 139.608 189.208 139.234ZM210.838 216.744C212.328 214.399 214.006 211.757 215.447 209.489C213.034 211.127 210.874 213.46 210.838 216.744ZM219.152 133.254C219.176 133.473 219.201 133.692 219.225 133.91C222.723 133.517 226.221 133.123 229.719 132.729C229.702 132.582 229.685 132.435 229.668 132.287C226.163 132.61 222.657 132.932 219.152 133.254ZM132.285 139.701C132.535 139.668 132.784 139.635 133.033 139.603C132.56 136.336 132.087 133.07 131.614 129.803C131.522 129.814 131.429 129.825 131.337 129.835C131.653 133.124 131.969 136.412 132.285 139.701ZM174.751 140.674C174.757 140.53 174.764 140.386 174.77 140.242C170.841 140.706 166.911 141.171 162.981 141.635C162.994 141.759 163.008 141.884 163.021 142.008C166.931 141.564 170.841 141.119 174.751 140.674ZM90.5955 196.548C93.2857 196.548 95.5834 196.548 97.8812 196.548C95.6575 196.092 93.4389 196.023 91.2319 196.153C90.818 196.178 90.4066 196.969 90.1114 197.475C90.0688 197.548 90.6888 198.008 91.0022 198.288C91.0918 198.214 91.1816 198.14 91.2712 198.066C91.1303 197.75 90.9895 197.433 90.5955 196.548ZM192.344 138.397C192.34 138.555 192.337 138.713 192.333 138.871C195.539 138.527 198.745 138.182 201.952 137.837C201.934 137.686 201.916 137.534 201.898 137.382C198.713 137.72 195.529 138.059 192.344 138.397ZM215.03 217.707C214.93 217.698 214.829 217.69 214.728 217.682C214.728 220.067 214.728 222.452 214.728 224.838C214.912 224.831 215.096 224.825 215.281 224.818C215.197 223.691 215.078 222.565 215.04 221.437C214.998 220.195 215.03 218.95 215.03 217.707Z" fill="white"/>
<path d="M26.5312 243.061C45.9791 242.81 65.429 241.823 84.873 242.967C84.8723 243.277 84.8716 243.588 84.8709 243.899C65.4369 243.899 46.0029 243.899 26.5689 243.899C26.5564 243.62 26.5439 243.34 26.5312 243.061Z" fill="white"/>
<path d="M78.2842 205.541C75.998 207.177 74.0751 207.171 72.0625 205.541C74.1863 205.541 76.0415 205.541 78.2842 205.541Z" fill="white"/>
<path d="M77.6057 208.732C76.0989 209.73 74.5153 209.939 72.8319 209.126C72.8124 208.921 72.793 208.716 72.7734 208.511C74.3652 208.38 75.9569 208.25 77.5485 208.119C77.5676 208.323 77.5866 208.528 77.6057 208.732Z" fill="white"/>
</svg>
