<svg width="20" height="20" viewBox="0 0 20 20" fill="none" xmlns="http://www.w3.org/2000/svg">
<path d="M15 0H5C2.24 0 0 2.24 0 5V15C0 17.76 2.24 20 5 20H15C17.76 20 20 17.76 20 15V5C20 2.24 17.76 0 15 0ZM10 15C7.24 15 5 12.76 5 10C5 7.24 7.24 5 10 5C12.76 5 15 7.24 15 10C15 12.76 12.76 15 10 15ZM15.35 5.62C14.8 5.62 14.35 5.17 14.35 4.62C14.35 4.07 14.8 3.62 15.35 3.62C15.9 3.62 16.35 4.07 16.35 4.62C16.35 5.17 15.9 5.62 15.35 5.62Z" fill="#2B2B2B"/>
<path d="M10 14C12.2091 14 14 12.2091 14 10C14 7.79086 12.2091 6 10 6C7.79086 6 6 7.79086 6 10C6 12.2091 7.79086 14 10 14Z" fill="#2B2B2B"/>
</svg>
