<svg width="128" height="116" viewBox="0 0 128 116" fill="none" xmlns="http://www.w3.org/2000/svg">
<path d="M65.507 33.5939V29.6728C65.507 26.4871 65.3285 23.3015 65.6303 20.1159C65.7536 18.9247 65.9332 17.7473 66.2223 16.5826C68.4648 7.48141 74.765 2.44861 83.7892 0.173306C85.8521 -0.348096 86.8841 0.266565 86.8564 2.56942C86.7321 12.4072 87.035 22.2587 86.5812 32.0689C86.1274 41.8399 78.2861 50.1781 69.0972 51.7041C68.2172 51.8514 67.0747 52.0655 66.2637 51.5833C65.3423 51.0216 65.3838 49.6153 65.4241 48.6785C65.5612 45.6804 65.5751 42.6824 65.5474 39.6843C65.5198 37.6634 65.5198 35.6286 65.5198 33.6077L65.507 33.5939Z" fill="#449A46"/>
<path d="M41.1751 22.5286V20.9752C41.1751 19.5554 41.1751 18.1357 41.1476 16.7297C41.1476 15.7521 41.0249 14.5073 42.0237 13.9442C42.8595 13.4756 43.9821 13.7301 44.8719 13.8902C54.116 15.7118 61.3192 23.3715 62.1952 33.2409C62.6745 38.7313 62.3053 44.3022 62.4555 49.8328C62.538 52.6182 60.7711 52.0287 59.1417 51.8145C52.5956 50.9705 46.9943 46.3645 43.9408 40.7936C42.0649 37.3921 41.2153 33.294 41.1878 29.4503C41.1878 27.1335 41.174 24.8167 41.1603 22.4999H41.174V22.5286H41.1751Z" fill="#D32133"/>
<path d="M58.6998 1.20703C54.921 1.20703 51.8628 4.17251 51.8628 7.83607C51.8628 11.5134 54.922 14.4789 58.6998 14.4789C62.4776 14.4789 65.5369 11.5134 65.5369 7.84988C65.5369 4.17251 62.4776 1.20703 58.6998 1.20703Z" fill="#449A46"/>
<path d="M21.2175 85.2308C20.8685 85.4329 20.5078 85.5715 20.1371 85.6683C19.7664 85.7535 19.2855 85.7969 18.696 85.7969C17.9312 85.7969 17.2766 85.6683 16.7523 85.4128C16.2279 85.1574 15.9441 84.6564 15.9006 83.8999C15.7804 81.7475 15.7036 79.8187 15.6819 78.0937C15.6602 76.8463 15.6268 75.7492 15.5834 74.8007V74.7056C15.5717 74.3749 15.5616 74.066 15.5399 73.7788H15.3863C15.1893 74.5452 14.8954 75.5154 14.5013 76.676C14.1189 77.8383 13.6613 79.3295 13.1153 81.1513C12.8431 81.365 12.5041 81.5354 12.0883 81.6623C11.6742 81.8009 11.1932 81.8643 10.6472 81.8643C9.92579 81.8643 9.3263 81.7692 8.84538 81.5988C8.36445 81.4185 8.05886 81.1096 7.91692 80.672C7.34916 78.9354 6.88994 77.5293 6.51923 76.4522C6.23535 75.6006 5.99488 74.8325 5.80953 74.1511C5.75442 73.9691 5.711 73.7988 5.66759 73.6285H5.52565C5.46052 74.7907 5.4171 75.8561 5.38371 76.8029C5.37202 77.0267 5.37202 77.2605 5.362 77.4842C5.34029 78.209 5.3286 78.912 5.3286 79.605C5.3286 80.5101 5.2952 81.4369 5.26347 82.3653C5.23008 83.2921 5.18666 84.3141 5.12153 85.4446C4.85936 85.5398 4.52038 85.6266 4.09456 85.7001C3.66874 85.7635 3.24291 85.7969 2.81709 85.7969C1.93206 85.7969 1.23404 85.6583 0.743098 85.3811C0.240463 85.1039 0 84.603 0 83.8782C0 81.4068 0.295569 78.8502 0.43751 76.3571C0.57945 73.8639 0.709701 71.3073 0.829932 68.7825C0.86333 68.1646 0.86333 67.6319 1.60476 67.5251C3.27464 67.2796 5.14157 67.7271 6.48583 68.739C8.48468 70.2303 9.2378 72.8086 9.95752 75.0362C10.1646 75.6758 10.3499 76.2502 10.5136 76.7628H10.6555C10.7424 75.6123 11.048 73.8222 12.1183 71.9586C12.6978 70.9466 13.5929 69.3586 15.5366 68.2715C17.108 67.3981 18.6259 67.2495 19.4775 67.2278C19.9033 67.2178 20.0453 67.303 20.0887 67.7505C20.1321 68.2832 20.1655 68.8259 20.1972 69.3703C20.4594 73.014 20.5797 76.6677 20.8736 80.3113C20.9604 81.3667 21.0372 82.3352 21.1023 83.2086C21.1574 84.0819 21.2008 84.7649 21.2226 85.2325H21.2175V85.2308Z" fill="#449A46"/>
<path d="M30.3051 71.2114C31.3972 71.2114 32.3907 71.3183 33.2975 71.5421C34.1925 71.7558 34.9674 72.0848 35.6019 72.5323C36.2348 72.9798 36.7274 73.5342 37.0764 74.2156C37.4254 74.8969 37.5891 75.7068 37.5891 76.6335V83.2713C37.5891 83.7823 37.4472 84.2081 37.1516 84.5288C36.8577 84.8594 36.507 85.1366 36.1029 85.3704C34.782 86.1369 32.9368 86.5209 30.5455 86.5209C29.4751 86.5209 28.5033 86.4257 27.6516 86.222C26.79 86.02 26.0569 85.7327 25.4357 85.337C24.8128 84.9429 24.3436 84.4419 24.0046 83.8241C23.6656 83.2162 23.502 82.5032 23.502 81.6933C23.502 80.329 23.9161 79.2853 24.746 78.5506C25.5759 77.8158 26.8634 77.3683 28.6001 77.1863L32.5744 76.7705V76.5684C32.5744 75.9923 32.3123 75.5882 31.7996 75.3427C31.287 75.0973 30.5439 74.9703 29.572 74.9703C28.8072 74.9703 28.0541 75.0455 27.3226 75.2041C26.5912 75.3644 25.9366 75.5548 25.3472 75.8003C25.085 75.6183 24.8662 75.3527 24.6809 74.9904C24.4955 74.628 24.4087 74.2439 24.4087 73.8499C24.4087 73.3389 24.5406 72.9231 24.7911 72.6242C25.0416 72.3152 25.4357 72.0597 25.96 71.836C26.5495 71.6222 27.2375 71.4636 28.034 71.3667C28.8306 71.2699 29.5853 71.2181 30.295 71.2181L30.3051 71.2114ZM30.5439 82.8555C30.8828 82.8555 31.2652 82.8238 31.6794 82.7487C32.0935 82.6852 32.4008 82.5884 32.6078 82.4715V80.1069L30.4236 80.2889C29.8559 80.3323 29.3866 80.4492 29.0259 80.6396C28.6652 80.8417 28.4799 81.1289 28.4799 81.5246C28.4799 81.9187 28.6335 82.2377 28.9491 82.4831C29.2664 82.7286 29.7907 82.8555 30.5439 82.8555Z" fill="#449A46"/>
<path d="M55.3015 68.4831V68.4413C55.2899 67.8986 55.2899 67.3442 55.2899 66.7998C55.2899 66.2571 55.0394 66.1185 54.5367 66.2454C54.1977 66.3306 53.8922 66.4258 53.5983 66.5443H53.5866C53.1724 66.7046 52.79 66.8967 52.4394 67.1204H52.4277C51.369 67.7917 50.6259 68.782 50.2869 70.1463C50.2218 70.4134 50.1783 70.7007 50.155 70.9779C50.1433 71.0848 50.1332 71.2016 50.1332 71.3085C50.1216 71.3619 50.1216 71.4154 50.1216 71.4688V71.554C49.8811 71.4588 49.5755 71.3736 49.2048 71.3085C48.8224 71.2334 48.43 71.2016 48.0259 71.2016C46.912 71.2016 45.875 71.3619 44.9149 71.6592C43.9547 71.9681 43.1131 72.4374 42.3933 73.0652C41.6719 73.7048 41.1159 74.493 40.7118 75.4515C40.3077 76.41 40.1006 77.5405 40.1006 78.8397C40.1006 80.0337 40.2859 81.0874 40.6683 82.0258C41.0391 82.9626 41.5851 83.7725 42.3065 84.4438C43.0262 85.1151 43.9012 85.6261 44.9483 85.9784C45.9853 86.3408 47.1642 86.5212 48.4851 86.5212C49.6974 86.5212 50.7661 86.3725 51.6946 86.0836C52.6331 85.7964 53.3862 85.4658 53.9773 85.0934C54.8624 84.539 55.3099 83.8042 55.3099 82.8775V70.4652C55.3132 69.8039 55.3015 69.1427 55.3015 68.4831ZM50.1817 75.5784C50.1934 76.0794 50.1934 76.5686 50.1817 77.0696V82.0125C50.018 82.1511 49.7993 82.278 49.5054 82.3849C49.2115 82.4917 48.8825 82.5452 48.5118 82.5452C47.4848 82.5452 46.7 82.2362 46.1539 81.6084C45.6079 80.9905 45.3357 80.0637 45.3357 78.838C45.3357 77.6123 45.6196 76.6755 46.209 76.0577C46.7985 75.4498 47.6401 75.1409 48.7305 75.1409C49.2983 75.1409 49.7792 75.2578 50.1833 75.4932V75.5784H50.1817Z" fill="#449A46"/>
<path d="M63.8412 79.2863C63.8078 80.714 63.8078 82.1418 63.8078 83.5796V86.0193C63.579 86.0627 63.2517 86.1144 62.8142 86.1896C62.3784 86.253 61.9409 86.2864 61.4934 86.2864C61.0458 86.2864 60.6534 86.2647 60.2927 86.2013C59.9437 86.1378 59.6481 86.0209 59.3977 85.8506C59.1572 85.6686 58.9718 85.4248 58.8416 85.1159C58.7097 84.8169 58.6445 84.4128 58.6445 83.9219V76.4959V76.3356C58.6779 76.0367 58.7213 75.7395 58.7982 75.4506C59.2674 73.5335 60.468 72.3496 62.183 71.7C62.4786 71.5714 62.8059 71.4762 63.1332 71.3911C63.6458 71.2625 63.898 71.4128 63.8863 71.9772C63.8646 74.1397 63.9197 76.3022 63.8529 78.4647C63.8529 78.7419 63.8412 79.0074 63.8312 79.2846H63.8412V79.2863Z" fill="#449A46"/>
<path d="M76.4289 76.9322C76.4289 76.3244 76.2536 75.8668 75.8945 75.5796C75.5455 75.2924 75.0646 75.1538 74.4534 75.1538C74.0493 75.1538 73.6452 75.2072 73.2528 75.3024C72.8604 75.3993 72.5214 75.5479 72.2375 75.75V86.0314C72.0304 86.0949 71.7132 86.1483 71.2773 86.2118C70.8398 86.2752 70.3923 86.2969 69.923 86.2969C69.4538 86.2969 69.0831 86.2652 68.7224 86.2118C68.3617 86.1583 68.0678 86.0314 67.8273 85.8611C67.5869 85.6791 67.4015 85.4453 67.2713 85.1364C67.141 84.8274 67.0742 84.4334 67.0742 83.9324V75.0469C67.0742 74.5142 67.1944 74.0767 67.4232 73.7478C67.652 73.4171 67.9693 73.1082 68.3834 72.831C69.0714 72.3618 69.9331 71.9677 70.9817 71.6804C72.0304 71.3815 73.1877 71.2329 74.4534 71.2329C76.7362 71.2329 78.5046 71.7222 79.7386 72.7024C80.9727 73.6826 81.5939 75.0352 81.5939 76.7719V86.0414C81.3868 86.1049 81.0695 86.1583 80.6337 86.2235C80.1978 86.2869 79.7486 86.3086 79.2794 86.3086C78.8102 86.3086 78.4378 86.2769 78.0788 86.2235C77.7181 86.17 77.4242 86.0414 77.1837 85.8728C76.9432 85.6908 76.7579 85.457 76.626 85.1481C76.4957 84.8391 76.4289 84.445 76.4289 83.9441V76.9556V76.9322Z" fill="#449A46"/>
<path d="M90.8522 71.2114C91.9443 71.2114 92.9379 71.3183 93.8429 71.5421C94.738 71.7558 95.5128 72.0848 96.1474 72.5323C96.7803 72.9798 97.2712 73.5342 97.6219 74.2156C97.9709 74.8969 98.1345 75.7068 98.1345 76.6335V83.2713C98.1345 83.7823 97.9926 84.2081 97.697 84.5288C97.4015 84.8594 97.0525 85.1366 96.6484 85.3704C95.3275 86.1369 93.4823 86.5209 91.091 86.5209C90.0206 86.5209 89.0487 86.4257 88.187 86.222C87.3237 86.02 86.5923 85.7327 85.9711 85.337C85.3483 84.9429 84.879 84.4419 84.5417 83.8241C84.2027 83.2162 84.0391 82.5032 84.0391 81.6933C84.0391 80.329 84.4532 79.2853 85.2831 78.5506C86.1131 77.8158 87.4022 77.3683 89.1372 77.1863L93.1115 76.7705V76.5684C93.1115 75.9923 92.8494 75.5882 92.3367 75.3427C91.8241 75.0973 91.081 74.9703 90.1091 74.9703C89.3343 74.9703 88.5912 75.0455 87.8598 75.2041C87.1283 75.3644 86.4738 75.5548 85.8843 75.8003C85.6221 75.6183 85.3933 75.3527 85.218 74.9904C85.0326 74.628 84.9441 74.2439 84.9441 73.8499C84.9441 73.3389 85.0744 72.9231 85.3265 72.6242C85.577 72.3152 85.9711 72.0597 86.4955 71.836C87.0849 71.6222 87.7729 71.4636 88.5695 71.3667C89.366 71.2699 90.1191 71.2181 90.8288 71.2181L90.8522 71.2114ZM91.0927 82.8555C91.4316 82.8555 91.8124 82.8238 92.2282 82.7487C92.6423 82.6735 92.9479 82.5884 93.1566 82.4715V80.1069L90.9724 80.2889C90.4047 80.3323 89.9354 80.4492 89.5747 80.6396C89.214 80.8417 89.0287 81.1289 89.0287 81.5246C89.0287 81.9187 89.1823 82.2377 89.4979 82.4831C89.8152 82.7286 90.3395 82.8555 91.0927 82.8555Z" fill="#449A46"/>
<path d="M110.628 82.9823C110.758 83.2478 110.825 83.5684 110.825 83.9525C110.825 84.6989 110.531 85.3168 109.963 85.7844C109.384 86.2636 108.369 86.4991 106.906 86.4991C105.126 86.4991 103.761 86.105 102.8 85.3168C101.828 84.5186 101.347 83.2395 101.347 81.4594V75.5246C101.238 73.16 101.313 70.7938 101.282 68.4393C101.27 67.8849 101.522 67.7363 102.025 67.8632C102.626 68.0118 103.182 68.2155 103.673 68.481C104.984 69.1523 105.901 70.2177 106.293 71.8058C106.358 72.0613 106.391 72.3385 106.423 72.594H106.457V72.786H110.431C110.551 72.9997 110.66 73.2652 110.78 73.5959C110.888 73.9265 110.944 74.2772 110.944 74.6713C110.944 75.3643 110.79 75.8653 110.474 76.1742C110.157 76.4831 109.743 76.6317 109.219 76.6317C108.345 76.6317 107.472 76.61 106.599 76.6317C106.457 76.6317 106.457 76.6317 106.457 76.792V77.6019C106.457 78.7107 106.413 79.8179 106.457 80.915C106.478 81.4159 106.478 81.8852 106.948 82.2041C107.287 82.4179 107.756 82.5231 108.367 82.5231C108.663 82.5231 108.978 82.5014 109.305 82.4479C109.623 82.4045 109.907 82.3411 110.157 82.2559C110.334 82.4813 110.498 82.7151 110.628 82.9823Z" fill="#449A46"/>
<path d="M128.002 77.0485V86.0191C127.805 86.0826 127.489 86.136 127.052 86.2011C126.616 86.2646 126.167 86.2863 125.697 86.2863C125.228 86.2863 124.857 86.2646 124.497 86.2011C124.148 86.1377 123.852 86.0191 123.602 85.8488C123.361 85.6684 123.176 85.423 123.044 85.114C122.914 84.8151 122.847 84.411 122.847 83.9201V77.3474C122.847 76.5375 122.64 75.9631 122.224 75.6425C121.81 75.3118 121.295 75.1532 120.684 75.1532C120.28 75.1532 119.898 75.2066 119.539 75.3018C119.168 75.397 118.872 75.5156 118.654 75.6542V86.0208C118.457 86.0842 118.129 86.1377 117.704 86.2028C117.268 86.2663 116.819 86.288 116.349 86.288C115.88 86.288 115.509 86.2663 115.149 86.2028C114.8 86.1394 114.494 86.0208 114.254 85.8505C114.013 85.6701 113.828 85.4246 113.698 85.1157C113.567 84.8168 113.5 84.4127 113.5 83.9217V67.5469C113.489 67.4183 113.489 67.2914 113.489 67.1745V66.1408C113.489 65.907 113.455 65.6081 113.708 65.4695C113.905 65.3526 114.177 65.4161 114.396 65.4595C115.247 65.6198 116.022 65.9922 116.667 66.5249C117.737 67.3765 118.447 68.6557 118.577 70.1369C118.61 70.5309 118.632 70.925 118.632 71.3191H118.654V71.745C118.916 71.6498 119.32 71.5312 119.854 71.4043C120.389 71.2757 120.978 71.2123 121.634 71.2123C123.633 71.2123 125.195 71.7015 126.318 72.6818C127.446 73.6603 128.002 75.1098 128.002 77.0485Z" fill="#449A46"/>
<path d="M50.182 77.0688V77.9973C50.1603 77.8904 50.1703 77.7836 50.1703 77.6884C50.1703 77.4847 50.182 77.2709 50.182 77.0688Z" fill="#449A46"/>
<path d="M97.1939 109.957C96.4859 109.957 95.8563 109.878 95.3069 109.722C94.7759 109.565 94.2749 109.378 93.8024 109.16V104.974C94.1363 105.23 94.5204 105.465 94.9529 105.682C95.3854 105.898 95.8764 106.006 96.4274 106.006C97.411 106.006 98.1574 105.692 98.6684 105.063C99.1994 104.413 99.4649 103.48 99.4649 102.26C99.4649 101.416 99.3564 100.738 99.141 100.227C98.9256 99.6955 98.5999 99.3031 98.1674 99.0476C97.755 98.7921 97.234 98.6652 96.6044 98.6652C96.2304 98.6652 95.8864 98.7137 95.5724 98.8122C95.2585 98.8907 94.993 98.9892 94.7759 99.1077V107.895H89.793V98.3112C89.793 97.7802 89.9015 97.3377 90.1169 96.9837C90.3524 96.6296 90.668 96.3257 91.0604 96.0702C91.6699 95.6778 92.4564 95.3622 93.42 95.1267C94.3835 94.8713 95.4439 94.7427 96.6044 94.7427C98.1958 94.7427 99.5918 95.0082 100.791 95.5392C101.99 96.0502 102.923 96.8668 103.593 97.9873C104.261 99.0877 104.595 100.514 104.595 102.262C104.595 103.934 104.271 105.338 103.621 106.479C102.972 107.619 102.088 108.484 100.968 109.074C99.8674 109.661 98.61 109.957 97.1939 109.957ZM94.806 106.684V114.763C94.5889 114.821 94.2749 114.881 93.8625 114.94C93.4701 114.998 93.0359 115.028 92.565 115.028C91.6014 115.028 90.8934 114.861 90.4425 114.527C90.01 114.193 89.793 113.574 89.793 112.671V106.684H94.806Z" fill="#D32133"/>
<path d="M72.6279 103.822V101.877H77.6409V103.822C77.6409 104.609 77.838 105.178 78.2304 105.532C78.6429 105.886 79.214 106.063 79.9404 106.063C80.3929 106.063 80.7669 106.023 81.0608 105.945C81.3564 105.866 81.5718 105.788 81.7088 105.709V101.875H86.7218V106.446C86.7218 106.937 86.6132 107.369 86.3978 107.743C86.2008 108.097 85.8968 108.401 85.4844 108.657C84.7964 109.089 83.9698 109.413 83.0079 109.63C82.0644 109.866 81.0325 109.984 79.912 109.984C78.4959 109.984 77.2385 109.777 76.138 109.365C75.0376 108.932 74.1726 108.264 73.543 107.359C72.9335 106.456 72.6279 105.277 72.6279 103.822ZM86.7234 103.144H81.7104V95.2426C81.9258 95.1841 82.2314 95.124 82.6239 95.0656C83.0363 95.0071 83.4788 94.9771 83.9514 94.9771C84.935 94.9771 85.6413 95.144 86.0738 95.478C86.5063 95.792 86.7218 96.4115 86.7218 97.3349V103.144H86.7234ZM77.6409 103.144H72.6279V95.2426C72.8433 95.1841 73.1489 95.124 73.5414 95.0656C73.9538 95.0071 74.3963 94.9771 74.8689 94.9771C75.8525 94.9771 76.5588 95.144 76.9913 95.478C77.4238 95.792 77.6409 96.4115 77.6409 97.3349V103.144Z" fill="#D32133"/>
<path d="M70.1839 102.349C70.1839 103.922 69.8599 105.278 69.2103 106.418C68.5808 107.559 67.6874 108.442 66.5268 109.072C65.3863 109.681 64.0303 109.985 62.4573 109.985C60.9043 109.985 59.5484 109.68 58.3878 109.072C57.2272 108.462 56.3238 107.587 55.6759 106.447C55.0464 105.306 54.7324 103.94 54.7324 102.349C54.7324 100.796 55.0564 99.4498 55.706 98.3093C56.3555 97.1687 57.259 96.2937 58.4195 95.6842C59.5801 95.0547 60.926 94.7407 62.459 94.7407C64.012 94.7407 65.3579 95.0547 66.4984 95.6842C67.659 96.3137 68.5624 97.1988 69.2103 98.3376C69.8582 99.4782 70.1839 100.816 70.1839 102.349ZM62.4573 98.6633C61.6507 98.6633 61.0129 98.9872 60.5403 99.6368C60.0877 100.266 59.8623 101.17 59.8623 102.35C59.8623 103.569 60.0877 104.493 60.5403 105.122C60.9928 105.752 61.6307 106.066 62.4573 106.066C63.2822 106.066 63.9218 105.752 64.3743 105.122C64.8269 104.474 65.0523 103.549 65.0523 102.35C65.0523 101.19 64.8169 100.286 64.3443 99.6368C63.8934 98.9872 63.2639 98.6633 62.4573 98.6633Z" fill="#D32133"/>
<path d="M48.7894 99.3989V102.76H43.7764V98.6325C43.7764 98.063 43.9233 97.5704 44.2189 97.158C44.5328 96.7255 44.9369 96.3514 45.4279 96.0375C46.1159 95.625 46.9224 95.3094 47.8459 95.094C48.7693 94.8786 49.7228 94.77 50.7064 94.77C52.8488 94.77 53.9209 95.5265 53.9209 97.0411C53.9209 97.3951 53.8725 97.729 53.774 98.043C53.6754 98.3386 53.5569 98.5941 53.4199 98.8095C53.2229 98.7694 52.9874 98.741 52.7119 98.721C52.4364 98.7009 52.1325 98.6909 51.7985 98.6909C51.3075 98.6909 50.7865 98.7493 50.2355 98.8679C49.6844 98.9865 49.2035 99.1635 48.7894 99.3989ZM43.7764 101.728H48.7894V109.483C48.5739 109.542 48.2583 109.602 47.8459 109.66C47.4518 109.719 47.0209 109.749 46.5484 109.749C45.5848 109.749 44.8768 109.582 44.4259 109.248C43.9934 108.914 43.778 108.294 43.778 107.391V101.728H43.7764Z" fill="#D32133"/>
<path d="M40.7633 100.579V106.654C40.7633 107.264 40.6548 107.717 40.4394 108.01C40.2239 108.306 39.88 108.59 39.4074 108.865C38.8563 109.179 38.0514 109.455 36.9894 109.692C35.9474 109.927 34.9054 110.046 33.8634 110.046C31.9764 110.046 30.2564 109.722 28.7034 109.072C27.1705 108.425 25.9515 107.401 25.0464 106.007C24.143 104.611 23.6904 102.812 23.6904 100.609C23.6904 98.5455 24.143 96.8055 25.0464 95.3894C25.9698 93.9734 27.1989 92.903 28.7318 92.1749C30.2848 91.4468 32.0148 91.0845 33.9218 91.0845C35.1609 91.0845 36.2313 91.2214 37.1363 91.4969C38.0598 91.7524 38.7678 92.1265 39.2588 92.6174C39.7497 93.09 39.9952 93.6494 39.9952 94.299C39.9952 94.7899 39.8666 95.2325 39.6111 95.6266C39.3556 96.0006 39.06 96.2945 38.7261 96.5116C38.2351 96.216 37.6156 95.9321 36.8692 95.6566C36.1227 95.3811 35.2661 95.2442 34.3042 95.2442C33.2622 95.2442 32.3388 95.4696 31.5322 95.9221C30.7256 96.3546 30.0978 96.9742 29.6452 97.779C29.2127 98.5656 28.9973 99.499 28.9973 100.581C28.9973 101.76 29.2044 102.754 29.6168 103.559C30.0493 104.345 30.6388 104.934 31.3869 105.327C32.1334 105.721 32.99 105.916 33.9519 105.916C34.3844 105.916 34.7584 105.878 35.0724 105.798C35.4063 105.699 35.6618 105.611 35.8388 105.532V102.702H32.6844C32.5659 102.486 32.449 102.201 32.3304 101.847C32.2319 101.493 32.1835 101.119 32.1835 100.726C32.1835 100.018 32.3404 99.5074 32.656 99.1934C32.99 98.8795 33.4125 98.7209 33.9235 98.7209H38.9064C39.4959 98.7209 39.9484 98.8878 40.2624 99.2218C40.5963 99.5374 40.7633 99.99 40.7633 100.579Z" fill="#D32133"/>
<path d="M63.3098 66.6126C62.7972 66.09 62.1092 65.8345 61.2575 65.8345C60.4059 65.8345 59.7296 66.09 59.2153 66.6126C58.6909 67.1236 58.4404 67.7532 58.4404 68.5096C58.4404 69.2661 58.6909 69.8839 59.2153 70.4066C59.7279 70.9176 60.4059 71.1731 61.2575 71.1731C62.1092 71.1731 62.7972 70.9176 63.3098 70.4066C63.8225 69.8839 64.0846 69.2561 64.0846 68.5096C64.0846 67.7632 63.8241 67.1236 63.3098 66.6126Z" fill="#449A46"/>
</svg>
