<svg width="27" height="28" viewBox="0 0 27 28" fill="none" xmlns="http://www.w3.org/2000/svg">
<path d="M8.55308 18.7605C6.9998 19.9804 5.99983 21.8737 5.99983 24.0003V26.0003H1.99994C0.893307 26.0003 0 25.1069 0 24.0003V22.667C0 20.0871 2.08661 18.0005 4.66653 18.0005H5.99983C6.94646 18.0005 7.81977 18.2805 8.55308 18.7605Z" fill="#449A46"/>
<path d="M21.3324 18.0003C22.9892 18.0003 24.3323 16.6572 24.3323 15.0004C24.3323 13.3436 22.9892 12.0005 21.3324 12.0005C19.6756 12.0005 18.3325 13.3436 18.3325 15.0004C18.3325 16.6572 19.6756 18.0003 21.3324 18.0003Z" fill="#449A46"/>
<path d="M5.33292 18.0003C6.98973 18.0003 8.33283 16.6572 8.33283 15.0004C8.33283 13.3436 6.98973 12.0005 5.33292 12.0005C3.67611 12.0005 2.33301 13.3436 2.33301 15.0004C2.33301 16.6572 3.67611 18.0003 5.33292 18.0003Z" fill="#449A46"/>
<path d="M26.6659 22.667V24.0003C26.6659 25.1069 25.7726 26.0003 24.6659 26.0003H20.6661V24.0003C20.6661 21.8737 19.6661 19.9804 18.1128 18.7605C18.8461 18.2805 19.7194 18.0005 20.6661 18.0005H21.9993C24.5793 18.0005 26.6659 20.0871 26.6659 22.667Z" fill="#449A46"/>
<path d="M13.3331 18.6671C15.358 18.6671 16.9996 17.0255 16.9996 15.0005C16.9996 12.9756 15.358 11.334 13.3331 11.334C11.3081 11.334 9.6665 12.9756 9.6665 15.0005C9.6665 17.0255 11.3081 18.6671 13.3331 18.6671Z" fill="#449A46"/>
<path d="M13.9995 18.667H12.6662C9.72561 18.667 7.33301 21.0596 7.33301 24.0002V26.0001C7.33301 27.1027 8.23031 28.0001 9.33295 28.0001H17.3327C18.4354 28.0001 19.3327 27.1027 19.3327 26.0001V24.0002C19.3327 21.0596 16.9401 18.667 13.9995 18.667Z" fill="#449A46"/>
<path d="M22.9992 9.12316L21.3906 9.69514C20.9339 9.85714 20.4573 9.51115 20.4706 9.0265L20.5173 7.31988L19.476 5.96659C19.1806 5.5826 19.3626 5.02195 19.8273 4.88462L21.4652 4.40196L22.4305 2.99334C22.7045 2.59402 23.2938 2.59402 23.5678 2.99334L24.5331 4.40196L26.1711 4.88462C26.6357 5.02128 26.8177 5.5826 26.5224 5.96659L25.4811 7.31988L25.5278 9.0265C25.5411 9.51048 25.0638 9.85714 24.6078 9.69514L22.9992 9.12316Z" fill="#449A46"/>
<path d="M3.66666 9.12316L2.05804 9.69514C1.60139 9.85714 1.12474 9.51115 1.13807 9.0265L1.18473 7.31988L0.143431 5.96659C-0.151894 5.5826 0.0301007 5.02195 0.494754 4.88462L2.13271 4.40196L3.09801 2.99334C3.372 2.59402 3.96132 2.59402 4.23531 2.99334L5.20062 4.40196L6.83857 4.88462C7.30322 5.02128 7.48522 5.5826 7.18989 5.96659L6.14859 7.31988L6.19526 9.0265C6.20859 9.51048 5.73127 9.85714 5.27528 9.69514L3.66666 9.12316Z" fill="#449A46"/>
<path d="M13.333 7.62328L11.4257 8.30126C10.8844 8.49392 10.319 8.0826 10.335 7.50862L10.3904 5.48534L9.15574 3.88072C8.80575 3.4254 9.02174 2.76075 9.57239 2.59809L11.5143 2.02544L12.659 0.35549C12.9836 -0.118497 13.6829 -0.118497 14.0076 0.35549L15.1522 2.02544L17.0942 2.59809C17.6448 2.76075 17.8608 3.4254 17.5108 3.88072L16.2762 5.48534L16.3315 7.50862C16.3475 8.0826 15.7815 8.49392 15.2409 8.30126L13.333 7.62328Z" fill="#449A46"/>
</svg>
