<svg width="28" height="28" viewBox="0 0 28 28" fill="none" xmlns="http://www.w3.org/2000/svg">
<path d="M27.1048 14.903L13.6082 1.40649C13.095 0.893226 12.395 0.589922 11.6486 0.531611L3.21456 0.00666662C2.33968 -0.0516447 1.49982 0.274941 0.881539 0.893226C0.275073 1.49976 -0.0515845 2.35136 0.00665562 3.21457L0.508318 11.6718C0.555024 12.4184 0.869862 13.1066 1.39488 13.6198L14.8913 27.1164C16.0695 28.2945 17.9826 28.2945 19.1608 27.1164L27.0931 19.1841C28.2713 18.0059 28.2829 16.0811 27.1048 14.903ZM6.28249 6.18916C5.51269 6.95902 4.26445 6.95902 3.49451 6.18916C2.72457 5.4309 2.73625 4.1828 3.50619 3.41286C4.26445 2.64299 5.51269 2.64299 6.27081 3.41286C7.04075 4.1828 7.05243 5.4309 6.28249 6.18916ZM20.479 20.4906C20.0474 20.9339 19.3473 20.9339 18.9042 20.4906L18.5542 20.1406C17.1778 20.8522 15.4512 20.6422 14.2964 19.499C13.8531 19.0558 13.8531 18.3559 14.2964 17.9243C14.728 17.4926 15.428 17.4926 15.8595 17.9243C16.4311 18.4842 17.341 18.4842 17.9009 17.9243C18.4725 17.3527 18.4725 16.4428 17.9009 15.8829C17.341 15.3113 16.4311 15.3113 15.8595 15.8829C14.4364 17.306 12.1034 17.306 10.6803 15.8829C9.52542 14.728 9.31553 12.9899 10.0269 11.6135L9.67707 11.2635C9.24547 10.8318 9.24547 10.1203 9.67707 9.68869C10.1087 9.25709 10.8086 9.25709 11.2518 9.68869L11.6018 10.0386C12.9782 9.33875 14.7047 9.53704 15.8595 10.6919C16.3029 11.1235 16.3029 11.8351 15.8595 12.2667C15.428 12.6983 14.728 12.6983 14.2964 12.2667C13.7248 11.7067 12.8151 11.7067 12.255 12.2667C11.6834 12.8266 11.6834 13.7481 12.255 14.3081C12.8151 14.868 13.7248 14.868 14.2964 14.3081C15.7197 12.8732 18.0527 12.8732 19.4758 14.3081C20.6306 15.4629 20.8405 17.1893 20.129 18.5658L20.479 18.9274C20.9106 19.359 20.9106 20.059 20.479 20.4906Z" fill="#449A46"/>
</svg>
