<svg width="27" height="28" viewBox="0 0 27 28" fill="none" xmlns="http://www.w3.org/2000/svg">
<path fill-rule="evenodd" clip-rule="evenodd" d="M0 4.45455C0 1.99436 1.99436 0 4.45455 0C6.91473 0 8.90909 1.99436 8.90909 4.45455V10.1818C8.90909 10.8847 8.33926 11.4545 7.63636 11.4545H1.27273C0.569825 11.4545 0 10.8847 0 10.1818V4.45455ZM4.45455 2.54545C3.40018 2.54545 2.54545 3.40018 2.54545 4.45455V8.90909H6.36364V4.45455C6.36364 3.40018 5.50891 2.54545 4.45455 2.54545Z" fill="#449A46"/>
<path fill-rule="evenodd" clip-rule="evenodd" d="M6.36368 2.54545H4.45459V0H7.63641H21.6364C24.448 0 26.7273 2.27928 26.7273 5.09091V26.7273C26.7273 27.4302 26.1575 28 25.4546 28H7.63641C6.93351 28 6.36368 27.4302 6.36368 26.7273V7.63636V2.54545ZM15.9091 14V10.1818H14C13.2971 10.1818 12.7273 10.7516 12.7273 11.4545V17.8182C12.7273 18.5211 13.2971 19.0909 14 19.0909H20.3637C21.0666 19.0909 21.6364 18.5211 21.6364 17.8182V11.4545C21.6364 10.7516 21.0666 10.1818 20.3637 10.1818H18.4546V14H15.9091Z" fill="#449A46"/>
</svg>
