<svg width="28" height="28" viewBox="0 0 28 28" fill="none" xmlns="http://www.w3.org/2000/svg">
<path fill-rule="evenodd" clip-rule="evenodd" d="M15.7688 0.597816L17.5471 1.92899C18.0335 2.29305 18.5455 2.47936 19.1521 2.51314L21.37 2.63651C22.698 2.71036 23.7767 3.61541 24.08 4.91053L24.5867 7.07336C24.7253 7.66486 24.9977 8.13666 25.4407 8.5524L27.0604 10.0726C28.0303 10.9829 28.2747 12.3695 27.6747 13.5566L26.6726 15.5391C26.3985 16.0813 26.3039 16.6178 26.376 17.221L26.6397 19.4267C26.7975 20.7474 26.0935 21.9668 24.8709 22.4904L22.8288 23.365C22.2703 23.6041 21.853 23.9543 21.5205 24.4627L20.3047 26.3218C19.5767 27.435 18.2536 27.9166 16.9804 27.5318L14.854 26.8892C14.2725 26.7134 13.7277 26.7134 13.1461 26.8892L11.0197 27.5318C9.74656 27.9166 8.42344 27.435 7.69543 26.3218L6.47959 24.4627C6.14703 23.9543 5.72971 23.6041 5.17129 23.365L3.12915 22.4903C1.90648 21.9667 1.20245 20.7473 1.3603 19.4266L1.62397 17.2209C1.69607 16.6176 1.60145 16.0812 1.3274 15.5389L0.325289 13.5565C-0.274729 12.3695 -0.030253 10.9828 0.939599 10.0725L2.55935 8.55229C3.00233 8.13654 3.27469 7.66474 3.41323 7.07324L3.91991 4.91041C4.22325 3.61535 5.30189 2.7103 6.62997 2.6364L8.84787 2.51302C9.45448 2.4793 9.96641 2.29293 10.4528 1.92887L12.2312 0.597699C13.2959 -0.199253 14.704 -0.199253 15.7688 0.597816ZM12.8655 14.5931L10.9356 12.6632C10.4354 12.163 9.62405 12.163 9.1239 12.6632C8.62369 13.1634 8.62369 13.9747 9.1239 14.4749L11.9625 17.3134C12.4627 17.8136 13.274 17.8137 13.7742 17.3134C15.4851 15.6025 17.1767 13.8723 18.8797 12.1535C19.3763 11.6523 19.3747 10.8436 18.8742 10.3458C18.3736 9.84793 17.5625 9.84933 17.0654 10.3514L12.8655 14.5931ZM13.9999 4.29108C11.3655 4.29108 8.98046 5.35894 7.25402 7.08537C5.52759 8.81187 4.45973 11.1969 4.45973 13.8313C4.45973 16.4657 5.52759 18.8508 7.25402 20.5772C8.98046 22.3036 11.3655 23.3715 13.9999 23.3715C16.6343 23.3715 19.0194 22.3036 20.7459 20.5772C22.4723 18.8508 23.5401 16.4657 23.5401 13.8313C23.5401 11.1969 22.4723 8.81181 20.7459 7.08537C19.0194 5.35894 16.6343 4.29108 13.9999 4.29108ZM20.0859 7.7453C18.5284 6.1878 16.3767 5.22442 13.9999 5.22442C11.6232 5.22442 9.47146 6.1878 7.91395 7.7453C6.35645 9.30281 5.39307 11.4546 5.39307 13.8313C5.39307 16.208 6.35645 18.3598 7.91395 19.9173C9.47146 21.4748 11.6232 22.4382 13.9999 22.4382C16.3767 22.4382 18.5284 21.4748 20.0859 19.9173C21.6434 18.3598 22.6068 16.2081 22.6068 13.8314C22.6068 11.4546 21.6434 9.30281 20.0859 7.7453Z" fill="#449A46"/>
</svg>
