<svg width="28" height="28" viewBox="0 0 28 28" fill="none" xmlns="http://www.w3.org/2000/svg">
<path d="M13.7207 0.0957316C13.8996 -0.0434989 14.1583 -0.0308344 14.3227 0.133568L15.8587 1.66966L15.928 1.7344C16.3076 2.06494 16.8414 2.16185 17.3161 1.97975L19.3453 1.20139L19.3961 1.18519C19.6175 1.1284 19.851 1.24529 19.9348 1.46365L20.5585 3.08887L20.593 3.17084C20.815 3.65342 21.299 3.96673 21.8356 3.96681L23.577 3.96705L23.6303 3.97011C23.8572 3.99646 24.0332 4.18919 24.0332 4.42312L24.033 6.59535L24.0359 6.68487C24.0688 7.18925 24.3783 7.63754 24.8444 7.8452L26.8297 8.72959L26.8771 8.75406C27.0738 8.87047 27.1562 9.11818 27.0611 9.33182L26.3526 10.922L26.3174 11.009C26.1355 11.5063 26.2567 12.0679 26.635 12.4463L27.8666 13.6776L27.9045 13.7206C28.0435 13.8994 28.0309 14.1581 27.8665 14.3225L26.3296 15.8587L26.2649 15.9281C25.9341 16.3079 25.8373 16.842 26.0197 17.317L26.799 19.3457L26.8152 19.3964C26.8718 19.6173 26.7549 19.8508 26.5366 19.9346L24.911 20.5583L24.829 20.5928C24.3462 20.8149 24.0328 21.299 24.0329 21.8358L24.0332 23.5772L24.0301 23.6304C24.0037 23.8571 23.811 24.0331 23.5771 24.0331L21.4039 24.0329L21.3143 24.0358C20.8098 24.0688 20.3613 24.3784 20.1538 24.8448L19.2703 26.8301L19.2459 26.8774C19.1297 27.0737 18.882 27.1562 18.6683 27.061L17.0775 26.3525L16.9905 26.3172C16.4932 26.1354 15.9315 26.2567 15.5532 26.6351L14.3224 27.8666L14.2794 27.9045C14.1007 28.0434 13.842 28.0308 13.6776 27.8664L12.1407 26.3293L12.0713 26.2646C11.6914 25.9339 11.1574 25.8372 10.6825 26.0196L8.65426 26.7989L8.6036 26.8151C8.38272 26.8716 8.14925 26.7548 8.06548 26.5365L7.44122 24.9106L7.40669 24.8286C7.18455 24.3461 6.70047 24.0328 6.16384 24.0328L4.42283 24.0331L4.36966 24.03C4.14296 24.0036 3.96691 23.8109 3.96691 23.577L3.96668 21.4036L3.96377 21.3141C3.93073 20.8097 3.62112 20.3614 3.15489 20.1538L1.16995 19.2703L1.1226 19.2458C0.926183 19.1296 0.843746 18.8819 0.938927 18.6682L1.64711 17.0771L1.68235 16.9901C1.86406 16.493 1.74284 15.9316 1.36456 15.5534L0.133514 14.3225L0.0955992 14.2795C-0.0434739 14.1007 -0.0308094 13.842 0.133593 13.6776L1.66985 12.1411L1.73451 12.0718C2.06496 11.6921 2.16179 11.1583 1.97969 10.6837L1.20134 8.65494L1.18514 8.60413C1.12842 8.38277 1.24523 8.14931 1.4636 8.06553L3.08913 7.44128L3.1711 7.40675C3.65353 7.18468 3.96676 6.70076 3.96676 6.16429L3.96699 4.42328L3.97006 4.37003C3.99641 4.14309 4.18913 3.96705 4.42307 3.96705L6.59609 3.96681L6.6856 3.9639C7.1899 3.93086 7.63819 3.62141 7.84578 3.15526L8.72977 1.17032L8.75424 1.12297C8.87058 0.926395 9.11828 0.843957 9.33193 0.939059L10.9225 1.64717L11.0095 1.68241C11.5065 1.86419 12.0679 1.74298 12.4462 1.36485L13.6776 0.133804L13.7207 0.0957316ZM17.8767 14.9121C16.4914 14.9121 15.3684 16.0351 15.3684 17.4204C15.3684 18.8057 16.4914 19.9287 17.8767 19.9287C19.262 19.9287 20.3849 18.8057 20.3849 17.4204C20.3849 16.0351 19.262 14.9121 17.8767 14.9121ZM19.1904 8.72637C19.0123 8.54828 18.7235 8.54828 18.5454 8.72637L8.87121 18.4007C8.69312 18.5788 8.69312 18.8675 8.87121 19.0456C9.0493 19.2237 9.33806 19.2237 9.51615 19.0456L19.1904 9.37139C19.3685 9.19322 19.3685 8.90453 19.1904 8.72637ZM17.8767 15.8242C18.7582 15.8242 19.4729 16.5388 19.4729 17.4204C19.4729 18.302 18.7582 19.0166 17.8767 19.0166C16.9951 19.0166 16.2805 18.302 16.2805 17.4204C16.2805 16.5388 16.9951 15.8242 17.8767 15.8242ZM10.1238 8.07135C8.73851 8.07135 7.61554 9.19432 7.61554 10.5796C7.61554 11.9649 8.73851 13.0879 10.1238 13.0879C11.5091 13.0879 12.6321 11.9649 12.6321 10.5796C12.6321 9.19432 11.5091 8.07135 10.1238 8.07135ZM10.1238 8.98351C11.0054 8.98351 11.72 9.69815 11.72 10.5797C11.72 11.4613 11.0054 12.1759 10.1238 12.1759C9.24225 12.1759 8.52761 11.4613 8.52761 10.5797C8.52761 9.69815 9.24225 8.98351 10.1238 8.98351Z" fill="#449A46"/>
</svg>
