<svg width="28" height="28" viewBox="0 0 28 28" fill="none" xmlns="http://www.w3.org/2000/svg">
<path d="M14.8206 0.00012207C13.0108 0.00012207 11.4844 1.52654 11.4844 3.33637C11.4844 5.1462 13.0108 6.67261 14.8206 6.67261C16.6304 6.67261 18.1022 5.1462 18.1022 3.33637C18.1022 1.52654 16.6304 0.00012207 14.8206 0.00012207Z" fill="#449A46"/>
<path d="M18.4629 6.67188C17.5612 7.6716 16.2699 8.31265 14.8208 8.31265C13.3716 8.31265 12.0256 7.6716 11.124 6.67188C10.3369 7.54471 9.84375 8.68817 9.84375 9.95343V10.7738C9.84375 11.2273 10.2107 11.5942 10.6641 11.5942H18.9227C19.3762 11.5942 19.7431 11.2273 19.7431 10.7738V9.95343C19.7431 8.68817 19.25 7.54471 18.4629 6.67188Z" fill="#449A46"/>
<path d="M7.92613 25.1803L3.74538 16.7984C3.34169 15.989 2.35919 15.6589 1.54882 16.0604L0.456113 16.6017C0.0492553 16.8035 -0.116299 17.2979 0.0867744 17.7041L5.0091 27.5487C5.21152 27.9547 5.70392 28.1163 6.10749 27.9173L7.18614 27.3829C7.99969 26.9799 8.33129 25.9927 7.92613 25.1803Z" fill="#449A46"/>
<path d="M27.3302 13.547C26.6574 13.0548 25.7222 13.1532 25.1644 13.7603L20.6796 19.2733C20.3678 19.6015 19.7771 19.7984 19.4654 19.7984H15.6423C15.1829 19.7984 14.8219 19.4375 14.8219 18.978C14.8219 18.5185 15.1829 18.1576 15.6423 18.1576C16.7411 18.1576 17.9576 18.1576 18.9239 18.1576C19.8263 18.1576 20.5647 17.4193 20.5647 16.5168C20.5647 15.6144 19.8263 14.876 18.9239 14.876C15.071 14.876 18.7461 14.876 14.625 14.876C14.2162 14.876 14.0123 14.6168 13.6898 14.3345C12.4204 13.1923 10.5204 12.642 8.59689 13.0878C7.52885 13.3354 6.80861 13.7668 6.07813 14.3454L6.0538 14.3256L4.86719 15.3699L9.53049 24.7207H10.9114H18.9239C20.4662 24.7207 21.943 23.9824 22.8618 22.7518L27.6747 15.8605C28.2161 15.1385 28.0685 14.0885 27.3302 13.547Z" fill="#449A46"/>
</svg>
