<svg width="24" height="28" viewBox="0 0 24 28" fill="none" xmlns="http://www.w3.org/2000/svg">
<path d="M7.06836 16.509L10.1332 28.0005L0 16.509H7.06836Z" fill="#449A46"/>
<path d="M7.12691 14.8673H0L4.6847 10.1826C4.83901 10.0288 5.0475 9.94238 5.26529 9.94238H9.94123L7.12691 14.8673Z" fill="#449A46"/>
<path d="M14.6426 14.8673H9.01392L11.8282 9.94238L14.6426 14.8673Z" fill="#449A46"/>
<path d="M14.892 16.509L11.8276 28.0005L8.76318 16.509H14.892Z" fill="#449A46"/>
<path d="M16.5321 14.8673L13.7178 9.94238H18.3937C18.6115 9.94238 18.82 10.0288 18.9743 10.1826L23.659 14.8673H16.5321Z" fill="#449A46"/>
<path d="M16.5912 16.509H23.6596L13.5264 28.0005L16.5912 16.509Z" fill="#449A46"/>
<path d="M11.8316 4.68043C11.3783 4.68043 11.0107 4.31292 11.0107 3.85961V0.820821C11.0107 0.367509 11.3783 0 11.8316 0C12.2849 0 12.6524 0.367509 12.6524 0.820821V3.85961C12.6524 4.31292 12.2849 4.68043 11.8316 4.68043Z" fill="#449A46"/>
<path d="M3.67592 6.37584L2.15653 3.74417C1.92982 3.3516 2.06432 2.84959 2.45695 2.62293C2.84952 2.39628 3.35159 2.53073 3.57819 2.92335L5.09758 5.55501C5.32429 5.94759 5.18979 6.4496 4.79716 6.67626C4.40623 6.90198 3.90356 6.77021 3.67592 6.37584Z" fill="#449A46"/>
<path d="M18.8715 6.67628C18.4789 6.44962 18.3444 5.94761 18.5711 5.55504L20.0905 2.92338C20.3172 2.53075 20.8191 2.39625 21.2117 2.62296C21.6043 2.84961 21.7388 3.35163 21.5121 3.7442L19.9927 6.37586C19.7654 6.76963 19.2629 6.90228 18.8715 6.67628Z" fill="#449A46"/>
</svg>
