<svg width="28" height="28" viewBox="0 0 28 28" fill="none" xmlns="http://www.w3.org/2000/svg">
<path d="M7.92612 25.0166L3.74537 16.6347C3.34169 15.8253 2.35919 15.4952 1.54881 15.8967L0.456113 16.438C0.0492553 16.6398 -0.116299 17.1342 0.0867743 17.5404L5.0091 27.385C5.21152 27.791 5.70391 27.9526 6.10749 27.7536L7.18613 27.2192C7.99969 26.8162 8.33129 25.829 7.92612 25.0166Z" fill="#449A46"/>
<path d="M27.3302 13.3833C26.6574 12.891 25.7222 12.9895 25.1643 13.5966L20.6796 19.1096C20.3678 19.4377 19.7771 19.6346 19.4654 19.6346H15.6423C15.1828 19.6346 14.8219 19.2737 14.8219 18.8142C14.8219 18.3548 15.1828 17.9938 15.6423 17.9938C16.7411 17.9938 17.9576 17.9938 18.9239 17.9938C19.8263 17.9938 20.5646 17.2555 20.5646 16.3531C20.5646 15.4506 19.8263 14.7123 18.9239 14.7123C15.071 14.7123 18.7461 14.7123 14.625 14.7123C14.2162 14.7123 14.0123 14.453 13.6898 14.1708C12.4204 13.0285 10.5204 12.4782 8.59689 12.9241C7.52885 13.1716 6.80861 13.6031 6.07813 14.1816L6.0538 14.1619L4.86719 15.2062L9.53049 24.5569H10.9114H18.9239C20.4662 24.5569 21.943 23.8186 22.8618 22.588L27.6747 15.6968C28.2161 14.9748 28.0685 13.9248 27.3302 13.3833Z" fill="#449A46"/>
<path d="M15.5867 0.824348H11.4102L11.9487 0.276085C12.1222 0.0994831 12.3593 0 12.6068 0H18.5666C18.8142 0 19.0513 0.0994832 19.2248 0.276085L19.7632 0.824348H15.5867ZM20.8254 11.1453C20.5685 11.4315 20.202 11.5949 19.8174 11.5948H11.356C10.6126 11.5969 10.0083 10.996 10.0061 10.2527C10.006 10.1977 10.0092 10.1428 10.0157 10.0883L10.73 2.47681C10.7745 2.00281 11.1723 1.64052 11.6484 1.64052H19.525C20.0011 1.64052 20.399 2.00286 20.4434 2.47689L21.1578 10.0965C21.2002 10.4774 21.0795 10.8584 20.8254 11.1453ZM18.8219 3.76092C18.8219 3.45108 18.5707 3.19991 18.2609 3.19991C17.951 3.19991 17.6999 3.45108 17.6999 3.76092V4.35932C17.6994 5.52637 16.753 6.47208 15.5859 6.47162C14.4195 6.47116 13.4741 5.52572 13.4736 4.35932V3.76092C13.4736 3.45108 13.2224 3.19991 12.9126 3.19991C12.6028 3.19991 12.3516 3.45108 12.3516 3.76092V4.35932C12.3518 6.14604 13.8004 7.59429 15.5871 7.59407C17.3735 7.59385 18.8217 6.14574 18.8219 4.35932V3.76092Z" fill="#449A46"/>
</svg>
